<svg width="16" height="26" viewBox="0 0 16 26" fill="none" xmlns="http://www.w3.org/2000/svg">
<path d="M1.95096 5.28132L1.97954 18.2779C1.98305 19.8701 2.6189 21.3957 3.74721 22.519C4.87553 23.6424 6.40389 24.2715 7.99607 24.268C9.58825 24.2645 11.1138 23.6287 12.2372 22.5004C13.3606 21.372 13.9897 19.8437 13.9862 18.2515L13.9576 5.25491C13.9553 4.19346 13.5314 3.17641 12.7792 2.4275C12.027 1.67859 11.008 1.25917 9.94659 1.2615C8.88514 1.26383 7.86809 1.68773 7.11918 2.43994C6.37027 3.19216 5.95084 4.21106 5.95318 5.27252L5.98885 18.2762C5.99001 18.8069 6.20196 19.3154 6.57807 19.6899C6.95417 20.0643 7.46363 20.274 7.99435 20.2729C8.52508 20.2717 9.03361 20.0598 9.40806 19.6836C9.78252 19.3075 9.99223 18.7981 9.99106 18.2674L9.9576 6.2678" stroke="#F3F3F3" stroke-width="2.5" stroke-linecap="round" stroke-linejoin="round"/>
</svg>
