<svg width="48" height="48" viewBox="0 0 48 48" fill="none" xmlns="http://www.w3.org/2000/svg">
<circle cx="24" cy="24" r="24" fill="#757575"/>
<path d="M34.6666 36V33.3333C34.6666 31.9188 34.1047 30.5623 33.1045 29.5621C32.1043 28.5619 30.7477 28 29.3333 28H18.6666C17.2521 28 15.8955 28.5619 14.8953 29.5621C13.8952 30.5623 13.3333 31.9188 13.3333 33.3333V36M29.3333 17.3333C29.3333 20.2789 26.9454 22.6667 23.9999 22.6667C21.0544 22.6667 18.6666 20.2789 18.6666 17.3333C18.6666 14.3878 21.0544 12 23.9999 12C26.9454 12 29.3333 14.3878 29.3333 17.3333Z" stroke="#B3B3B3" stroke-width="3" stroke-linecap="round" stroke-linejoin="round"/>
</svg>
