<svg width="32" height="32" viewBox="0 0 32 32" fill="none" xmlns="http://www.w3.org/2000/svg">
<path d="M18.6666 2.66675H7.99998C7.29274 2.66675 6.61446 2.9477 6.11436 3.4478C5.61426 3.94789 5.33331 4.62617 5.33331 5.33341V26.6667C5.33331 27.374 5.61426 28.0523 6.11436 28.5524C6.61446 29.0525 7.29274 29.3334 7.99998 29.3334H24C24.7072 29.3334 25.3855 29.0525 25.8856 28.5524C26.3857 28.0523 26.6666 27.374 26.6666 26.6667V10.6667M18.6666 2.66675L26.6666 10.6667M18.6666 2.66675L18.6666 10.6667H26.6666M21.3333 17.3334H10.6666M21.3333 22.6667H10.6666M13.3333 12.0001H10.6666" stroke="#FFF" stroke-width="2" stroke-linecap="round" stroke-linejoin="round"/>
</svg>
